<?xml version="1.0" encoding="UTF-8"?>
<svg version="1.1" xmlns="http://www.w3.org/2000/svg" width="793" height="199">
<path d="M0 0 C261.69 0 523.38 0 793 0 C793 65.67 793 131.34 793 199 C531.31 199 269.62 199 0 199 C0 133.33 0 67.66 0 0 Z " fill="#FEFEFE" transform="translate(0,0)"/>
<path d="M0 0 C4.16010108 0.58387384 5.05658304 1.22208453 7.5625 4.5 C8.05469131 7.39726639 8.05469131 7.39726639 8.04351807 10.82745361 C8.04901672 12.12873199 8.05451538 13.43001038 8.06018066 14.77072144 C8.04602487 16.21075808 8.03148564 17.65079101 8.01660156 19.09082031 C8.01547316 20.6086321 8.01610681 22.12644607 8.01837158 23.64425659 C8.01951994 27.76391418 7.99599122 31.88310657 7.96807575 36.00265598 C7.94308226 40.30812285 7.94072172 44.6136002 7.93597412 48.91912842 C7.92353829 57.07185381 7.89070852 65.22436483 7.85057616 73.3769958 C7.80587731 82.65862292 7.78387617 91.94026023 7.76379442 101.22196817 C7.72197638 120.31476702 7.65161257 139.40736628 7.5625 158.5 C8.45040852 158.49631283 9.33831703 158.49262566 10.25313187 158.48882675 C31.84353359 158.4005448 53.43390426 158.33432404 75.02444839 158.29275131 C85.46542079 158.27211342 95.90627282 158.24396938 106.34716797 158.19824219 C115.44592771 158.15841199 124.54460028 158.13257612 133.64344478 158.12364602 C138.46263462 158.1184248 143.28157509 158.1061276 148.10068512 158.07707977 C152.63475635 158.04997096 157.16847498 158.04154579 161.70261955 158.04756927 C163.36834312 158.046467 165.03407823 158.03848605 166.69973183 158.0231781 C168.97150118 158.0033203 171.24193361 158.00804429 173.51373291 158.01898193 C174.78580723 158.01529476 176.05788155 158.01160759 177.36850357 158.00780869 C181.13742054 158.58859462 182.32356243 159.46337518 184.5625 162.5 C185.0625 165.5 185.0625 165.5 184.5625 168.5 C182.99663639 170.65575409 182.99663639 170.65575409 180.5625 172.5 C177.94009775 172.89316774 175.73656201 173.04122839 173.11631775 173.00793457 C172.36364311 173.01417453 171.61096848 173.0204145 170.83548552 173.02684355 C168.31179924 173.04280666 165.7890744 173.03015696 163.26538086 173.01757812 C161.45686784 173.02299774 159.64835923 173.0301195 157.83985901 173.03881836 C152.92671813 173.05707243 148.01391278 173.04997593 143.10076594 173.03730202 C137.96386089 173.0271867 132.82698489 173.03656346 127.69007874 173.04284668 C119.06408521 173.05012671 110.43822861 173.04052535 101.81225586 173.02148438 C91.83170638 172.99970808 81.85148364 173.0067711 71.87094206 173.02879 C63.30864883 173.04692563 54.74645412 173.04951153 46.18414789 173.03903532 C41.06720373 173.03279117 35.95041329 173.03199018 30.83347893 173.04518127 C26.0243349 173.0567127 21.21561337 173.04876379 16.40651512 173.02560425 C14.63880364 173.02030293 12.87105675 173.02185514 11.10335922 173.03065491 C8.69565457 173.04153817 6.28931552 173.0279361 3.88169861 173.00793457 C3.17723113 173.01685746 2.47276364 173.02578034 1.74694866 173.03497362 C-1.26298288 172.98625532 -3.02386259 172.84531133 -5.37114048 170.88576508 C-6.78043055 167.73276183 -6.81519436 165.27629687 -6.81845093 161.81982422 C-6.8231309 161.1495262 -6.82781087 160.47922817 -6.83263266 159.78861809 C-6.84459361 157.54377297 -6.8351216 155.29953709 -6.82568359 153.0546875 C-6.82974882 151.44484094 -6.83509043 149.83499717 -6.84161377 148.22515869 C-6.85529902 143.85329609 -6.84998377 139.4816457 -6.84047651 135.10977936 C-6.83288617 130.53655929 -6.83992378 125.9633575 -6.84463501 121.39013672 C-6.85009439 113.70992772 -6.84289618 106.02980524 -6.82861328 98.34960938 C-6.81228641 89.46770481 -6.81757479 80.58600684 -6.8340925 71.70410728 C-6.84770218 64.08107928 -6.84962956 56.45811351 -6.84177649 48.83507729 C-6.83709712 44.28094725 -6.83648236 39.72691434 -6.84638596 35.17279053 C-6.85504582 30.89145985 -6.84905175 26.61039578 -6.83170319 22.32909393 C-6.82773309 20.75691928 -6.82888134 19.18472223 -6.83549118 17.61255646 C-6.84367642 15.46812567 -6.8334228 13.32455181 -6.81845093 11.18017578 C-6.81731985 9.97966583 -6.81618877 8.77915588 -6.81502342 7.54226685 C-6.20377194 2.61650595 -4.96120121 0.72162927 0 0 Z " fill="#1E70C0" transform="translate(12.4375,16.5)"/>
<path d="M0 0 C4.95 0 9.9 0 15 0 C15 28.38 15 56.76 15 86 C10.38 86 5.76 86 1 86 C0.505 82.04 0.505 82.04 0 78 C-0.45890625 78.40992188 -0.9178125 78.81984375 -1.390625 79.2421875 C-2.00421875 79.78101563 -2.6178125 80.31984375 -3.25 80.875 C-3.85328125 81.40867187 -4.4565625 81.94234375 -5.078125 82.4921875 C-11.00784947 87.14436971 -17.81017246 86.81730204 -25.046875 86.28125 C-31.58744576 85.33940781 -36.3684257 81.12781162 -40.4375 76.1875 C-46.58656249 66.88551879 -47.14814685 56.88031616 -46 46 C-44.43035024 38.73102669 -40.58587522 32.87637897 -35 28 C-27.95913324 23.53474443 -21.29069877 22.17319534 -13 23 C-7.77133823 24.67074788 -4.91851883 27.08148117 -1 31 C-0.67 20.77 -0.34 10.54 0 0 Z " fill="#2071C1" transform="translate(435,61)"/>
<path d="M0 0 C-0.572881 13.43307162 -2.22644561 26.67915496 -4 40 C-5.85253906 40.58959961 -5.85253906 40.58959961 -8 41 C-10.359375 39.56640625 -10.359375 39.56640625 -12.75 37.5625 C-13.94882812 36.57443359 -13.94882812 36.57443359 -15.171875 35.56640625 C-15.77515625 35.04949219 -16.3784375 34.53257813 -17 34 C-20.69596903 35.54164547 -22.97658403 37.77449429 -25.74926758 40.63330078 C-26.20677902 41.10176422 -26.66429047 41.57022766 -27.13566589 42.05288696 C-28.12533057 43.06683649 -29.1128237 44.08290917 -30.09836769 45.10086441 C-31.66090463 46.71219719 -33.23177841 48.31493221 -34.80558777 49.91525269 C-39.27852817 54.46441473 -43.74460747 59.01996227 -48.18383789 63.60205078 C-50.90305858 66.40753791 -53.63915181 69.19557763 -56.38687706 71.97314072 C-57.42873134 73.03292215 -58.46412313 74.09909801 -59.49274635 75.17172623 C-60.93350751 76.67286671 -62.39479956 78.15079179 -63.86254883 79.62548828 C-64.68765457 80.47217072 -65.51276031 81.31885315 -66.36286926 82.19119263 C-69.7817277 84.53618685 -71.93588013 84.44700761 -76 84 C-78.26342773 82.53125 -78.26342773 82.53125 -80.18359375 80.5 C-80.88291016 79.778125 -81.58222656 79.05625 -82.30273438 78.3125 C-83.00720703 77.549375 -83.71167969 76.78625 -84.4375 76 C-85.16904297 75.236875 -85.90058594 74.47375 -86.65429688 73.6875 C-88.4530237 71.80647849 -90.23340018 69.91114269 -92 68 C-95.43880802 69.48027739 -97.65317924 71.41522944 -100.27783203 74.06665039 C-101.11194611 74.90414322 -101.94606018 75.74163605 -102.80545044 76.60450745 C-103.69722992 77.50974655 -104.5890094 78.41498566 -105.5078125 79.34765625 C-106.91597888 80.76376842 -108.32414773 82.17987814 -109.73246574 83.5958395 C-111.70059588 85.57708905 -113.66414604 87.56284735 -115.62768555 89.54864502 C-119.07077107 93.02976561 -122.51873223 96.50604217 -125.97018433 99.97886658 C-127.80701904 101.8279978 -129.64117469 103.67979471 -131.47244263 105.53443909 C-132.30025238 106.36877975 -133.12806213 107.20312042 -133.98095703 108.06274414 C-134.71057648 108.80061661 -135.44019592 109.53848907 -136.19192505 110.29872131 C-138.53267809 112.50121478 -139.65880933 112.95549687 -142.875 113.375 C-146 113 -146 113 -148.375 110.8125 C-150.15968712 107.72361845 -150.39911676 106.48365703 -150 103 C-148.73413086 101.18237305 -148.73413086 101.18237305 -146.96484375 99.51171875 C-146.31966797 98.88716797 -145.67449219 98.26261719 -145.00976562 97.61914062 C-144.32591797 96.98169922 -143.64207031 96.34425781 -142.9375 95.6875 C-141.6107387 94.4232358 -140.28651438 93.15630383 -138.96484375 91.88671875 C-138.07720337 91.05466919 -138.07720337 91.05466919 -137.17163086 90.20581055 C-135.25895968 88.26303549 -133.47514737 86.27450831 -131.68969727 84.21606445 C-126.38167027 78.10254966 -120.71964964 72.34467818 -115.0390625 66.57910156 C-113.67250935 65.18571476 -112.31317422 63.78521436 -110.9609375 62.37792969 C-108.99059684 60.32866129 -106.99836225 58.30315646 -105 56.28125 C-104.401875 55.65013306 -103.80375 55.01901611 -103.1875 54.36877441 C-100.14890129 51.34437675 -98.66379409 50.11038988 -94.32397461 49.38867188 C-90.61456871 50.07088652 -89.37359263 50.79487722 -86.81640625 53.5 C-86.11708984 54.221875 -85.41777344 54.94375 -84.69726562 55.6875 C-83.99279297 56.450625 -83.28832031 57.21375 -82.5625 58 C-81.83095703 58.763125 -81.09941406 59.52625 -80.34570312 60.3125 C-78.5469763 62.19352151 -76.76659982 64.08885731 -75 66 C-71.59646978 64.52877384 -69.38744251 62.63057487 -66.78222656 60.00927734 C-65.96167786 59.18857758 -65.14112915 58.36787781 -64.29571533 57.52230835 C-63.41953552 56.63580597 -62.54335571 55.74930359 -61.640625 54.8359375 C-60.73624695 53.92872955 -59.8318689 53.02152161 -58.90008545 52.08682251 C-56.50203542 49.68115581 -54.11005382 47.26954264 -51.71929932 44.85662842 C-49.27614829 42.39297656 -46.82728794 39.93501423 -44.37890625 37.4765625 C-39.58066212 32.65626427 -34.78817268 27.83030157 -30 23 C-32.67878128 20.29848236 -35.28162757 17.67752324 -38.3125 15.375 C-39.199375 14.59125 -40.08625 13.8075 -41 13 C-41 12.01 -41 11.02 -41 10 C-32.74016132 7.3048511 -24.39663074 4.97580395 -16 2.75 C-14.99702881 2.47978027 -13.99405762 2.20956055 -12.96069336 1.93115234 C-12.00428955 1.68059082 -11.04788574 1.4300293 -10.0625 1.171875 C-8.78052734 0.8330127 -8.78052734 0.8330127 -7.47265625 0.48730469 C-4.91947383 -0.01586989 -2.59538635 -0.08705455 0 0 Z " fill="#1E6FC0" transform="translate(190,7)"/>
<path d="M0 0 C8.62707453 4.54306494 13.85431423 10.27123913 17.1875 19.4375 C17.1875 24.3875 17.1875 29.3375 17.1875 34.4375 C2.9975 34.4375 -11.1925 34.4375 -25.8125 34.4375 C-22.97543503 44.65339987 -22.97543503 44.65339987 -19.125 48.125 C-14.85614884 49.81643159 -11.34339995 50.13262883 -6.8125 49.4375 C-3.72581447 48.09546281 -2.26764504 47.25465809 -0.62890625 44.3125 C1.1875 42.4375 1.1875 42.4375 4.54296875 42.265625 C5.80753906 42.40484375 7.07210937 42.5440625 8.375 42.6875 C9.64730469 42.81640625 10.91960937 42.9453125 12.23046875 43.078125 C13.20628906 43.19671875 14.18210937 43.3153125 15.1875 43.4375 C14.33950596 49.37345825 12.9862553 52.25587836 8.16796875 56.01171875 C-0.47397926 62.09199903 -8.74713668 63.66803636 -19.16796875 62.078125 C-26.74928777 60.09222197 -33.26155072 54.64656631 -37.296875 47.98828125 C-38.28649346 45.8190089 -39.11940387 43.71730677 -39.8125 41.4375 C-40.00070312 40.82648438 -40.18890625 40.21546875 -40.3828125 39.5859375 C-42.23274478 30.33627608 -41.35290697 20.72756891 -36.8125 12.4375 C-28.49542154 0.47709955 -14.22305979 -5.80836997 0 0 Z " fill="#1E6FC0" transform="translate(498.8125,85.5625)"/>
<path d="M0 0 C5.69536518 4.83883565 9.44471132 10.8897482 10.26226807 18.41362 C10.34476779 21.08288473 10.33785164 23.73610483 10.29296875 26.40625 C10.28872391 27.3715564 10.28447906 28.33686279 10.28010559 29.3314209 C10.26343097 32.3879083 10.22579992 35.44371485 10.1875 38.5 C10.17243866 40.58332375 10.1587528 42.66665793 10.14648438 44.75 C10.11356424 49.83359215 10.06186016 54.91668099 10 60 C5.05 60 0.1 60 -5 60 C-5 58.02 -5 56.04 -5 54 C-5.33 54.33 -5.66 54.66 -6 55 C-11.76482498 60.10598784 -16.90999273 61.44668939 -24.4765625 61.2421875 C-30.42643485 60.67114712 -34.43411258 58.99786758 -38.4375 54.5 C-42.88469021 48.97433587 -42.6510882 42.82738318 -42 36 C-38.859361 29.48608206 -34.05837729 26.0680214 -27.34472656 23.61743164 C-23.0935978 22.49799134 -18.86522889 22.68877622 -14.5 22.8125 C-13.5821875 22.82603516 -12.664375 22.83957031 -11.71875 22.85351562 C-9.47853197 22.88851903 -7.23959406 22.93761131 -5 23 C-5.22917968 21.39272673 -5.48420802 19.78912584 -5.75 18.1875 C-5.88921875 17.29417969 -6.0284375 16.40085937 -6.171875 15.48046875 C-7.20120138 12.39734492 -8.15762519 11.53050951 -11 10 C-15.57357287 9.18643175 -19.67622802 9.0959606 -23.5625 11.75 C-25.26204424 14.14737401 -25.26204424 14.14737401 -26 18 C-32.93 17.505 -32.93 17.505 -40 17 C-38.71659314 10.79686685 -37.40449854 5.59190218 -32.1015625 1.5546875 C-22.95283862 -4.39708454 -9.72572154 -5.67966941 0 0 Z " fill="#1F6FC0" transform="translate(654,87)"/>
<path d="M0 0 C4.59229043 3.84909367 7.61527625 9.45172124 8.26010132 15.39889526 C8.34576748 18.18624557 8.33747475 20.95778943 8.29296875 23.74609375 C8.28872391 24.75720718 8.28447906 25.76832062 8.28010559 26.81007385 C8.26339754 30.01949401 8.22575953 33.22827165 8.1875 36.4375 C8.17244301 38.62173568 8.15875638 40.80598127 8.14648438 42.99023438 C8.11351973 48.3270681 8.06179158 53.66342535 8 59 C3.38 59 -1.24 59 -6 59 C-6.495 56.03 -6.495 56.03 -7 53 C-7.845625 53.78375 -8.69125 54.5675 -9.5625 55.375 C-14.31120899 59.30074771 -19.6763037 60.51180027 -25.8203125 60.30859375 C-30.94116359 59.5835987 -35.9700519 57.99750601 -39.7109375 54.31640625 C-43.88900979 48.7013669 -44.84015282 42.9079232 -44 36 C-41.99149506 30.41111669 -38.43360391 26.65957522 -33.125 24.09375 C-24.48363571 20.85323839 -15.07227013 21.74850997 -6 22 C-6.29651458 20.55223372 -6.59992494 19.10587858 -6.90625 17.66015625 C-7.07447266 16.85457275 -7.24269531 16.04898926 -7.41601562 15.21899414 C-7.93275647 12.85146082 -7.93275647 12.85146082 -9.5 10.4375 C-13.52614941 8.12246409 -17.48652165 8.13820316 -22 9 C-25.34625024 11.52676039 -26.67977847 13.03933542 -28 17 C-32.29 16.67 -36.58 16.34 -41 16 C-40.88698891 9.67137915 -39.50301778 6.3187536 -35.06640625 1.765625 C-25.4108412 -6.48449863 -10.69489782 -6.56739923 0 0 Z " fill="#1D6EC0" transform="translate(372,88)"/>
<path d="M0 0 C4.95 0 9.9 0 15 0 C15.33 15.84 15.66 31.68 16 48 C21.33457734 41.94512074 21.33457734 41.94512074 26.3671875 35.71875 C36.0467631 23.82909391 36.0467631 23.82909391 42.75390625 22.96875 C46.92111386 22.83457366 50.90001591 23.27735899 55 24 C50.81433745 28.97754466 46.4719439 33.79406333 42.04760742 38.55957031 C38.91195477 41.95171003 35.9314129 45.4324758 33 49 C34.59877909 54.11609309 37.73872468 57.84822635 41 62 C41.86371216 63.11580444 41.86371216 63.11580444 42.74487305 64.25415039 C45.01604532 67.18624415 47.30068763 70.10764044 49.58837891 73.02685547 C50.55599133 74.26207172 51.5220739 75.49848856 52.48632812 76.73632812 C53.74243828 78.34762702 55.00577645 79.9532836 56.26953125 81.55859375 C58 84 58 84 58 86 C44.18229129 87.50921576 44.18229129 87.50921576 39.54296875 84.30078125 C37.4568873 81.64377225 35.74872434 78.89117752 34 76 C32.04421854 73.2586039 30.01681211 70.57165799 28 67.875 C26.32709096 65.58780902 24.66379663 63.29383727 23 61 C20.10637962 62.29714017 18.00915986 63.52678223 16 66 C15.49844978 68.2143507 15.49844978 68.2143507 15.48828125 70.66796875 C15.45283203 71.56064453 15.41738281 72.45332031 15.38085938 73.37304688 C15.34702148 74.76620117 15.34702148 74.76620117 15.3125 76.1875 C15.27833984 77.12787109 15.24417969 78.06824219 15.20898438 79.03710938 C15.12652849 81.3576536 15.06158697 83.67880817 15 86 C10.05 86 5.1 86 0 86 C0 57.62 0 29.24 0 0 Z " fill="#2273C2" transform="translate(731,61)"/>
<path d="M0 0 C1.40958984 -0.00193359 1.40958984 -0.00193359 2.84765625 -0.00390625 C3.83636719 -0.00003906 4.82507813 0.00382812 5.84375 0.0078125 C7.32681641 0.00201172 7.32681641 0.00201172 8.83984375 -0.00390625 C9.77957031 -0.00261719 10.71929687 -0.00132813 11.6875 0 C12.55568359 0.00112793 13.42386719 0.00225586 14.31835938 0.00341797 C16.34375 0.1328125 16.34375 0.1328125 17.34375 1.1328125 C17.4496109 3.95247192 17.49052774 6.7477677 17.48901367 9.56811523 C17.49237228 10.4526236 17.4957309 11.33713196 17.49919128 12.2484436 C17.50873143 15.18777856 17.51064592 18.12705675 17.51171875 21.06640625 C17.51492917 23.10042851 17.51829307 25.13445053 17.52180481 27.16847229 C17.52780373 31.43824804 17.52964393 35.70800353 17.52905273 39.9777832 C17.52895106 45.46043613 17.54260527 50.94295969 17.55982494 56.42558193 C17.57092027 60.62820538 17.57297271 64.83079731 17.57244301 69.03343391 C17.57362678 71.05532337 17.57807063 73.07721355 17.58577538 75.09908867 C17.59552578 77.9221908 17.59271694 80.74500895 17.58666992 83.56811523 C17.59228943 84.41027084 17.59790894 85.25242645 17.60369873 86.12010193 C17.57206532 91.90449718 17.57206532 91.90449718 15.34375 94.1328125 C13.40429688 94.39160156 13.40429688 94.39160156 11.0625 94.3984375 C10.22074219 94.40101563 9.37898437 94.40359375 8.51171875 94.40625 C7.63128906 94.39851563 6.75085938 94.39078125 5.84375 94.3828125 C4.96332031 94.39054687 4.08289063 94.39828125 3.17578125 94.40625 C2.33402344 94.40367187 1.49226562 94.40109375 0.625 94.3984375 C-0.14779297 94.39618164 -0.92058594 94.39392578 -1.71679688 94.39160156 C-3.65625 94.1328125 -3.65625 94.1328125 -5.65625 92.1328125 C-5.84974721 89.24607006 -5.91843751 86.45561146 -5.89916992 83.56811523 C-5.90106827 82.68185455 -5.90296661 81.79559387 -5.90492249 80.88247681 C-5.90863685 77.94369755 -5.89791746 75.00516366 -5.88671875 72.06640625 C-5.88552731 70.03141814 -5.88507371 67.99642948 -5.8853302 65.96144104 C-5.88376424 61.69341599 -5.87546538 57.42547469 -5.86206055 53.1574707 C-5.84505979 47.67365738 -5.84124644 42.1899361 -5.84200573 36.70609951 C-5.84173444 32.50351576 -5.83626004 28.30095233 -5.82900429 24.09837532 C-5.82581172 22.07566545 -5.82384885 20.05295327 -5.82311058 18.03024101 C-5.82095383 15.20949212 -5.8122244 12.38884289 -5.80151367 9.56811523 C-5.80196686 8.72393539 -5.80242004 7.87975555 -5.80288696 7.00999451 C-5.76380471 0.00748824 -5.76380471 0.00748824 0 0 Z " fill="#2275C2" transform="translate(162.65625,71.8671875)"/>
<path d="M0 0 C21.45 0 42.9 0 65 0 C65 4.29 65 8.58 65 13 C56.75 13 48.5 13 40 13 C40 37.09 40 61.18 40 86 C35.05 86 30.1 86 25 86 C25 61.91 25 37.82 25 13 C16.75 13 8.5 13 0 13 C0 8.71 0 4.42 0 0 Z " fill="#1B6DBF" transform="translate(514,61)"/>
<path d="M0 0 C21.12 0 42.24 0 64 0 C64 4.29 64 8.58 64 13 C55.75 13 47.5 13 39 13 C39 37.09 39 61.18 39 86 C34.38 86 29.76 86 25 86 C24 85 24 85 23.87974548 82.14634705 C23.88196609 80.86949539 23.88418671 79.59264374 23.88647461 78.27709961 C23.88632858 77.5746965 23.88618256 76.8722934 23.8860321 76.14860535 C23.88673128 73.81648722 23.89452383 71.484448 23.90234375 69.15234375 C23.90420792 67.53951562 23.90563182 65.92668693 23.90663147 64.31385803 C23.91045677 60.06084643 23.92028715 55.80786876 23.93133545 51.55487061 C23.94154931 47.2182257 23.94612904 42.88157533 23.95117188 38.54492188 C23.96190941 30.02993058 23.9795063 21.51497341 24 13 C16.08 13 8.16 13 0 13 C0 8.71 0 4.42 0 0 Z " fill="#1E71C1" transform="translate(227,61)"/>
<path d="M0 0 C4.83306427 3.68380058 6.94530707 8.07017601 8.96484375 13.71484375 C7.38371455 14.22177067 5.79982992 14.72010818 4.21484375 15.21484375 C2.89226563 15.6325 2.89226563 15.6325 1.54296875 16.05859375 C-1.03515625 16.71484375 -1.03515625 16.71484375 -5.03515625 16.71484375 C-6.39878833 14.73537783 -7.72934269 12.73291925 -9.03515625 10.71484375 C-12.16791026 7.94011877 -14.47246367 7.49250734 -18.53515625 7.71484375 C-23.0670432 8.40103628 -25.21024672 10.03390102 -28.03515625 13.71484375 C-30.62130686 17.54853884 -30.36681237 21.63029882 -30.34765625 26.08984375 C-30.36376953 26.83234375 -30.37988281 27.57484375 -30.39648438 28.33984375 C-30.40180528 34.36310748 -28.99894108 38.45351576 -24.97265625 43.08984375 C-20.68901092 45.45951989 -16.82119916 45.63584214 -12.03515625 44.71484375 C-8.5495239 42.10061949 -6.88062634 39.57055805 -5.03515625 35.71484375 C-3.26403781 36.19295552 -1.49327142 36.67237155 0.27734375 37.15234375 C1.26347656 37.41917969 2.24960937 37.68601563 3.265625 37.9609375 C5.18001901 38.495638 7.0791799 39.08628913 8.96484375 39.71484375 C7.48857033 46.27605894 3.48029347 51.39118475 -2.09765625 55.078125 C-5.63421923 56.92008489 -9.04203727 58.32527117 -13.03515625 58.71484375 C-13.66808594 58.77800781 -14.30101562 58.84117187 -14.953125 58.90625 C-22.58895574 59.32520708 -29.33938853 56.93230438 -35.84765625 53.02734375 C-44.65331916 43.7185001 -46.64114344 34.30055567 -46.34765625 21.890625 C-45.88553358 13.3047709 -42.28043157 6.54066028 -36.03515625 0.71484375 C-24.92511505 -7.84914634 -11.63109965 -7.3447827 0 0 Z " fill="#1E6EC0" transform="translate(717.03515625,89.28515625)"/>
<path d="M0 0 C0.89460938 -0.00128906 1.78921875 -0.00257812 2.7109375 -0.00390625 C3.65195313 -0.00003906 4.59296875 0.00382812 5.5625 0.0078125 C6.97402344 0.00201172 6.97402344 0.00201172 8.4140625 -0.00390625 C9.75597656 -0.00197266 9.75597656 -0.00197266 11.125 0 C11.95128906 0.00112793 12.77757812 0.00225586 13.62890625 0.00341797 C15.5625 0.1328125 15.5625 0.1328125 16.5625 1.1328125 C16.66149561 2.93790623 16.69049151 4.74688178 16.69189453 6.5546875 C16.69504669 7.71258789 16.69819885 8.87048828 16.70144653 10.06347656 C16.6994223 11.32385742 16.69739807 12.58423828 16.6953125 13.8828125 C16.69674759 15.80818848 16.69674759 15.80818848 16.69821167 17.77246094 C16.69968831 20.49285074 16.69753519 23.21320775 16.69287109 25.93359375 C16.68717381 29.42765919 16.69045299 32.92164783 16.69644356 36.41571045 C16.70091754 39.73808403 16.69778885 43.06043673 16.6953125 46.3828125 C16.69733673 47.64319336 16.69936096 48.90357422 16.70144653 50.20214844 C16.69829437 51.36004883 16.69514221 52.51794922 16.69189453 53.7109375 C16.69109894 54.73606445 16.69030334 55.76119141 16.68948364 56.81738281 C16.5625 59.1328125 16.5625 59.1328125 15.5625 60.1328125 C14.08597336 60.23162047 12.60482764 60.26360495 11.125 60.265625 C9.78308594 60.26755859 9.78308594 60.26755859 8.4140625 60.26953125 C7.47304687 60.26566406 6.53203125 60.26179688 5.5625 60.2578125 C4.15097656 60.26361328 4.15097656 60.26361328 2.7109375 60.26953125 C1.81632812 60.26824219 0.92171875 60.26695312 0 60.265625 C-0.82628906 60.26449707 -1.65257813 60.26336914 -2.50390625 60.26220703 C-4.4375 60.1328125 -4.4375 60.1328125 -5.4375 59.1328125 C-5.53649561 57.32771877 -5.56549151 55.51874322 -5.56689453 53.7109375 C-5.57004669 52.55303711 -5.57319885 51.39513672 -5.57644653 50.20214844 C-5.5744223 48.94176758 -5.57239807 47.68138672 -5.5703125 46.3828125 C-5.57174759 44.45743652 -5.57174759 44.45743652 -5.57321167 42.49316406 C-5.57468831 39.77277426 -5.57253519 37.05241725 -5.56787109 34.33203125 C-5.56217381 30.83796581 -5.56545299 27.34397717 -5.57144356 23.84991455 C-5.57591754 20.52754097 -5.57278885 17.20518827 -5.5703125 13.8828125 C-5.57233673 12.62243164 -5.57436096 11.36205078 -5.57644653 10.06347656 C-5.57329437 8.90557617 -5.57014221 7.74767578 -5.56689453 6.5546875 C-5.56570114 5.01699707 -5.56570114 5.01699707 -5.56448364 3.44824219 C-5.34209065 -0.60688909 -3.60433264 0.00492011 0 0 Z " fill="#1D6EC0" transform="translate(119.4375,105.8671875)"/>
<path d="M0 0 C0.02685412 2.31243792 0.04632841 4.6249627 0.0625 6.9375 C0.07410156 8.22527344 0.08570313 9.51304688 0.09765625 10.83984375 C0 14 0 14 -1 15 C-2.3921724 15.26964181 -3.78893976 15.5157353 -5.1875 15.75 C-10.10965272 16.8159439 -12.56084517 18.3091997 -16 22 C-18.01154831 26.71150854 -18.33456085 31.18617392 -18.4140625 36.2421875 C-18.43342865 37.01055939 -18.4527948 37.77893127 -18.4727478 38.57058716 C-18.53214117 41.00528138 -18.57876628 43.44002393 -18.625 45.875 C-18.66321693 47.53387386 -18.70227079 49.19272867 -18.7421875 50.8515625 C-18.83780907 54.90088542 -18.92198701 58.95030113 -19 63 C-23.62 63 -28.24 63 -33 63 C-33 42.54 -33 22.08 -33 1 C-28.38 1 -23.76 1 -19 1 C-19 3.64 -19 6.28 -19 9 C-17.93566335 7.93566335 -16.96955269 6.77634382 -16 5.625 C-11.25025946 1.46897703 -6.26764494 0 0 0 Z " fill="#1D6EBF" transform="translate(609,84)"/>
<path d="M0 0 C0 4.62 0 9.24 0 14 C-2.5678125 14.556875 -2.5678125 14.556875 -5.1875 15.125 C-10.78972321 16.65877062 -12.99320018 18.05332933 -16 23 C-17.90138457 27.68352641 -18.3330339 32.02375379 -18.4140625 37.0234375 C-18.43342865 37.76961334 -18.4527948 38.51578918 -18.4727478 39.28457642 C-18.53212065 41.64793777 -18.5787578 44.01134897 -18.625 46.375 C-18.66321884 47.98569732 -18.7022728 49.59637506 -18.7421875 51.20703125 C-18.83778676 55.13786016 -18.921972 59.06878463 -19 63 C-23.62 63 -28.24 63 -33 63 C-33 42.54 -33 22.08 -33 1 C-28.38 1 -23.76 1 -19 1 C-18.67 3.31 -18.34 5.62 -18 8 C-17.55269531 7.59007813 -17.10539062 7.18015625 -16.64453125 6.7578125 C-10.94286726 1.67615888 -7.91452363 0 0 0 Z " fill="#1F72C1" transform="translate(324,84)"/>
<path d="M0 0 C4.14084087 2.72919057 6.92933474 6.21004577 8.75 10.8125 C9.05078125 14.2734375 9.05078125 14.2734375 9.0625 18.1875 C9.07925781 19.47398438 9.09601563 20.76046875 9.11328125 22.0859375 C8.64558515 26.88359425 7.30562067 30.12606577 4.03125 33.67578125 C3.4434375 34.15402344 2.855625 34.63226563 2.25 35.125 C1.36828125 35.86169922 1.36828125 35.86169922 0.46875 36.61328125 C-3.26678875 39.21966851 -6.83995639 39.18623251 -11.25 38.8125 C-16.52838327 36.0180618 -20.33864461 32.54656618 -22.25 26.8125 C-22.42466964 24.02637601 -22.52697439 21.28757588 -22.5625 18.5 C-22.59150391 17.75298828 -22.62050781 17.00597656 -22.65039062 16.23632812 C-22.72443103 9.74924975 -20.50056905 6.3358653 -16.1875 1.5 C-11.58046038 -2.5125829 -5.40088548 -1.97340046 0 0 Z " fill="#FCFDFE" transform="translate(426.25,97.1875)"/>
<path d="M0 0 C0.89460938 -0.00128906 1.78921875 -0.00257812 2.7109375 -0.00390625 C3.65195313 -0.00003906 4.59296875 0.00382812 5.5625 0.0078125 C6.97402344 0.00201172 6.97402344 0.00201172 8.4140625 -0.00390625 C9.75597656 -0.00197266 9.75597656 -0.00197266 11.125 0 C11.95128906 0.00112793 12.77757813 0.00225586 13.62890625 0.00341797 C15.5625 0.1328125 15.5625 0.1328125 16.5625 1.1328125 C16.67590974 3.84835642 16.7266802 6.53751293 16.73046875 9.25390625 C16.73379715 10.06900162 16.73712555 10.88409698 16.74055481 11.72389221 C16.74562742 13.45142043 16.74796303 15.17895848 16.74780273 16.90649414 C16.74998792 19.55566495 16.76813621 22.20441866 16.78710938 24.85351562 C16.79004344 26.5286444 16.79202815 28.20377517 16.79296875 29.87890625 C16.80015427 30.67477646 16.80733978 31.47064667 16.81474304 32.29063416 C16.79132227 37.90399023 16.79132227 37.90399023 14.5625 40.1328125 C12.71484375 40.39160156 12.71484375 40.39160156 10.5 40.3984375 C9.30503906 40.40230469 9.30503906 40.40230469 8.0859375 40.40625 C7.25320312 40.39851563 6.42046875 40.39078125 5.5625 40.3828125 C4.31339844 40.39441406 4.31339844 40.39441406 3.0390625 40.40625 C2.24242188 40.40367187 1.44578125 40.40109375 0.625 40.3984375 C-0.10589844 40.39618164 -0.83679688 40.39392578 -1.58984375 40.39160156 C-3.4375 40.1328125 -3.4375 40.1328125 -5.4375 38.1328125 C-5.62503311 35.34771026 -5.69311232 32.66381604 -5.66796875 29.87890625 C-5.66751053 29.06285416 -5.66705231 28.24680206 -5.6665802 27.40602112 C-5.66355744 25.68025255 -5.65567042 23.95448672 -5.64331055 22.22875977 C-5.62504978 19.57753917 -5.62280086 16.92666754 -5.62304688 14.27539062 C-5.61813194 12.60155946 -5.61230373 10.92773068 -5.60546875 9.25390625 C-5.60435593 8.45601181 -5.6032431 7.65811737 -5.60209656 6.83604431 C-5.54276328 0.00756617 -5.54276328 0.00756617 0 0 Z " fill="#1E70C1" transform="translate(79.4375,125.8671875)"/>
<path d="M0 0 C0.99 0.495 0.99 0.495 2 1 C2 51.82 2 102.64 2 155 C14.46523438 154.96519531 26.93046875 154.93039063 39.7734375 154.89453125 C47.64843935 154.87921112 55.52343046 154.86464603 63.3984375 154.85351562 C75.91084465 154.8356892 88.42319136 154.81469139 100.93554688 154.77368164 C110.04673895 154.74383351 119.15788216 154.72443792 128.26912177 154.71773452 C133.09602442 154.71381445 137.92278727 154.70456516 142.74964523 154.68280983 C147.28859411 154.66251701 151.82734498 154.65615151 156.36633492 154.66067696 C158.03611513 154.65984851 159.70590166 154.65384007 161.37564278 154.64238358 C163.64792276 154.6275517 165.91944601 154.63101163 168.19174194 154.63923645 C169.46565985 154.63647107 170.73957775 154.63370569 172.05209923 154.63085651 C173.02490648 154.75267386 173.99771374 154.87449121 175 155 C175.66 155.99 176.32 156.98 177 158 C154.06968853 157.89290815 131.13941104 157.78017361 108.2091608 157.66066074 C97.56303586 157.60530554 86.91690757 157.55181983 76.27075195 157.50268555 C66.99510972 157.45987179 57.7194924 157.413601 48.4438886 157.36312145 C43.5293378 157.33649781 38.61479202 157.31164426 33.70021248 157.29092598 C29.0800323 157.27139428 24.45989963 157.24726112 19.83976173 157.21950912 C18.13894256 157.21012025 16.43811294 157.20245163 14.73727798 157.19658089 C12.42543104 157.18835075 10.11370038 157.17408314 7.80189514 157.15821838 C6.50493241 157.15176583 5.20796968 157.14531328 3.87170506 157.1386652 C1 157 1 157 0 156 C-0.09674566 153.98771955 -0.12187008 151.97198631 -0.12025452 149.9573822 C-0.12162918 148.64339951 -0.12300385 147.32941681 -0.12442017 145.97561646 C-0.12088054 144.50579812 -0.11724573 143.03598 -0.11352539 141.56616211 C-0.11324353 140.02908836 -0.11340123 138.49201447 -0.1139679 136.9549408 C-0.11425591 132.7691714 -0.10835852 128.58343041 -0.10139394 124.39766765 C-0.09516109 120.02809844 -0.09455666 115.65852865 -0.09336853 111.28895569 C-0.09025501 103.00872953 -0.08204135 94.7285165 -0.07201904 86.44829613 C-0.06085854 77.02402841 -0.05534761 67.59976008 -0.05032361 58.1754874 C-0.03985875 38.78365081 -0.02225891 19.39182646 0 0 Z " fill="#1567BD" transform="translate(18,20)"/>
<path d="M0 0 C0.84175781 -0.00257813 1.68351562 -0.00515625 2.55078125 -0.0078125 C3.87142578 0.00378906 3.87142578 0.00378906 5.21875 0.015625 C6.09917969 0.00789062 6.97960938 0.00015625 7.88671875 -0.0078125 C8.72847656 -0.00523437 9.57023437 -0.00265625 10.4375 0 C11.59668945 0.00338379 11.59668945 0.00338379 12.77929688 0.00683594 C14.71875 0.265625 14.71875 0.265625 16.71875 2.265625 C16.91731972 5.13904561 16.99703946 7.89424488 16.96875 10.765625 C16.97648437 11.55066406 16.98421875 12.33570313 16.9921875 13.14453125 C16.97205787 19.01231713 16.97205787 19.01231713 14.71875 21.265625 C12.77929688 21.52441406 12.77929688 21.52441406 10.4375 21.53125 C9.59574219 21.53382813 8.75398438 21.53640625 7.88671875 21.5390625 C7.00628906 21.53132813 6.12585937 21.52359375 5.21875 21.515625 C3.89810547 21.52722656 3.89810547 21.52722656 2.55078125 21.5390625 C1.70902344 21.53648437 0.86726563 21.53390625 0 21.53125 C-0.77279297 21.52899414 -1.54558594 21.52673828 -2.34179688 21.52441406 C-4.28125 21.265625 -4.28125 21.265625 -6.28125 19.265625 C-6.47981972 16.39220439 -6.55953946 13.63700512 -6.53125 10.765625 C-6.53898437 9.98058594 -6.54671875 9.19554687 -6.5546875 8.38671875 C-6.53456203 2.52014548 -6.16724168 0.01800279 0 0 Z " fill="#1F71C1" transform="translate(42.28125,144.734375)"/>
<path d="M0 0 C1.15242188 0.01804687 2.30484375 0.03609375 3.4921875 0.0546875 C4.36101562 0.07789062 5.22984375 0.10109375 6.125 0.125 C6.48134225 7.01428344 5.70639896 11.05958873 1.125 16.5 C-3.44606039 18.97599104 -7.7907708 18.8848925 -12.875 18.125 C-16.37938169 16.03905852 -16.73613281 14.57427619 -17.9375 10.6875 C-17.875 7.125 -17.875 7.125 -15.8125 4.3125 C-10.74642182 0.53988859 -6.2287057 -0.12711644 0 0 Z " fill="#F9FBFD" transform="translate(359.875,118.875)"/>
<path d="M0 0 C0.36076925 5.07081218 0.5619882 8.87602359 -1.75 13.5 C-4.45544196 16.50604662 -6.40035454 17.75290029 -10.40234375 18.37109375 C-14.88788952 18.48858879 -17.29458855 18.46557156 -21.125 15.9375 C-23.4780487 12.25105703 -23.70341469 10.29864534 -23 6 C-20.73763051 2.65169316 -18.12321882 1.27964321 -14.21484375 0.3046875 C-9.50465899 -0.34327442 -4.74168324 -0.14014827 0 0 Z " fill="#FAFCFD" transform="translate(649,119)"/>
<path d="M0 0 C3.31248187 -0.02888146 6.62493167 -0.04675799 9.9375 -0.0625 C10.88302734 -0.07087891 11.82855469 -0.07925781 12.80273438 -0.08789062 C14.15141602 -0.09272461 14.15141602 -0.09272461 15.52734375 -0.09765625 C16.77632446 -0.10551147 16.77632446 -0.10551147 18.05053711 -0.11352539 C20 0 20 0 21 1 C21.1058609 3.81965942 21.14677774 6.6149552 21.14526367 9.43530273 C21.14862228 10.3198111 21.1519809 11.20431946 21.15544128 12.1156311 C21.16498143 15.05496606 21.16689592 17.99424425 21.16796875 20.93359375 C21.17117917 22.96761601 21.17454307 25.00163803 21.17805481 27.03565979 C21.18405373 31.30543554 21.18589393 35.57519103 21.18530273 39.8449707 C21.18520106 45.32762363 21.19885527 50.81014719 21.21607494 56.29276943 C21.22717027 60.49539288 21.22922271 64.69798481 21.22869301 68.90062141 C21.22987678 70.92251087 21.23432063 72.94440105 21.24202538 74.96627617 C21.25177578 77.7893783 21.24896694 80.61219645 21.24291992 83.43530273 C21.24853943 84.27745834 21.25415894 85.11961395 21.25994873 85.98728943 C21.22831532 91.77168468 21.22831532 91.77168468 19 94 C17.04467773 94.24291992 17.04467773 94.24291992 14.68359375 94.23046875 C13.83732422 94.22853516 12.99105469 94.22660156 12.11914062 94.22460938 C11.23419922 94.21236328 10.34925781 94.20011719 9.4375 94.1875 C8.54869141 94.18685547 7.65988281 94.18621094 6.74414062 94.18554688 C0.14021097 94.14021097 0.14021097 94.14021097 -1 93 C-1.09520906 90.16959328 -1.12553631 87.36365007 -1.11352539 84.53295898 C-1.11367142 83.64523804 -1.11381744 82.75751709 -1.1139679 81.84289551 C-1.11326843 78.89393716 -1.10547448 75.94504113 -1.09765625 72.99609375 C-1.09579219 70.95728083 -1.09436823 68.91846746 -1.09336853 66.87965393 C-1.08954241 61.50215426 -1.07971132 56.12468142 -1.06866455 50.74719238 C-1.05845245 45.26440799 -1.05387134 39.78161928 -1.04882812 34.29882812 C-1.03808914 23.53254027 -1.02101159 12.76627236 -1 2 C-0.67 2 -0.34 2 0 2 C0 31.7 0 61.4 0 92 C6.27 92 12.54 92 19 92 C19 62.3 19 32.6 19 2 C15.37 2 11.74 2 8 2 C5.32773994 1.71495893 2.6573177 1.40110456 0 1 C0 0.67 0 0.34 0 0 Z " fill="#075CB8" transform="translate(159,72)"/>
<path d="M0 0 C2.5289776 2.08268743 3.79872188 3.7484232 5.125 6.75 C5.125 8.73 5.125 10.71 5.125 12.75 C-4.445 12.75 -14.015 12.75 -23.875 12.75 C-20.44642857 2.46428571 -20.44642857 2.46428571 -14.875 -1.25 C-9.838947 -2.92868433 -4.82744113 -2.09888745 0 0 Z " fill="#FAFBFD" transform="translate(496.875,97.25)"/>
<path d="M0 0 C4.62 0 9.24 0 14 0 C14 16.17 14 32.34 14 49 C13.67 49 13.34 49 13 49 C13 33.16 13 17.32 13 1 C9.37 1 5.74 1 2 1 C2 28.39 2 55.78 2 84 C5.63 84 9.26 84 13 84 C13 78.06 13 72.12 13 66 C13.33 66 13.66 66 14 66 C14 72.6 14 79.2 14 86 C9.38 86 4.76 86 0 86 C0 57.62 0 29.24 0 0 Z " fill="#0D5FBA" transform="translate(731,61)"/>
<path d="M0 0 C4.62 0 9.24 0 14 0 C14 28.38 14 56.76 14 86 C9.38 86 4.76 86 0 86 C0 82.7 0 79.4 0 76 C0.33 76 0.66 76 1 76 C1 78.64 1 81.28 1 84 C4.63 84 8.26 84 12 84 C12 56.61 12 29.22 12 1 C8.37 1 4.74 1 1 1 C1 11.56 1 22.12 1 33 C0.67 33 0.34 33 0 33 C0 22.11 0 11.22 0 0 Z " fill="#075CB9" transform="translate(436,61)"/>
<path d="M0 0 C4.62 0 9.24 0 14 0 C14.1953125 6.0546875 14.1953125 6.0546875 14 8 C13.34 8.66 12.68 9.32 12 10 C12 7.36 12 4.72 12 2 C8.37 2 4.74 2 1 2 C1 21.14 1 40.28 1 60 C4.96 60 8.92 60 13 60 C12.97905273 59.01193359 12.95810547 58.02386719 12.93652344 57.00585938 C12.86362992 53.30841809 12.81802306 49.61103913 12.78027344 45.91308594 C12.76026947 44.31857592 12.73305699 42.72413822 12.69824219 41.12988281 C12.35098497 24.80879366 12.35098497 24.80879366 17 18 C17.33 18.66 17.66 19.32 18 20 C17.24958251 21.92811804 16.49776797 23.85571297 15.73641968 25.77954102 C14.58405224 29.25416927 14.52134949 32.58369263 14.48828125 36.21875 C14.47033005 36.96209595 14.45237885 37.70544189 14.43388367 38.47131348 C14.38028535 40.81415354 14.3460502 43.15679605 14.3125 45.5 C14.27928208 47.10158972 14.24478837 48.70315351 14.20898438 50.3046875 C14.12458934 54.20298111 14.05754068 58.10122131 14 62 C9.38 62 4.76 62 0 62 C0 41.54 0 21.08 0 0 Z " fill="#0651B5" transform="translate(291,85)"/>
<path d="M0 0 C0.33 0 0.66 0 1 0 C1 24.09 1 48.18 1 73 C-3.62 73 -8.24 73 -13 73 C-14.45478827 70.09042346 -14.07412632 67.59583159 -14.02172852 64.34716797 C-14.01212097 63.66412598 -14.00251343 62.98108398 -13.99261475 62.27734375 C-13.95958537 60.01552142 -13.91926823 57.75388989 -13.87890625 55.4921875 C-13.85460897 53.92563554 -13.83076522 52.35907649 -13.80735779 50.79251099 C-13.74447779 46.66603524 -13.67542229 42.53968485 -13.60510254 38.41333008 C-13.53445441 34.20399695 -13.46961639 29.99457484 -13.40429688 25.78515625 C-13.27523408 17.52333898 -13.13965049 9.26164506 -13 1 C-12.67 1 -12.34 1 -12 1 C-12 24.1 -12 47.2 -12 71 C-8.04 71 -4.08 71 0 71 C0 47.57 0 24.14 0 0 Z " fill="#0049B1" transform="translate(265,74)"/>
<path d="M0 0 C4.8403477 4.53782597 9.14689594 9.59800548 13 15 C13 15.66 13 16.32 13 17 C7.72 17 2.44 17 -3 17 C-3.66 15.68 -4.32 14.36 -5 13 C-4.01 13.495 -4.01 13.495 -3 14 C-0.95944995 14.07065617 1.08334257 14.08421976 3.125 14.0625 C4.22070312 14.05347656 5.31640625 14.04445312 6.4453125 14.03515625 C7.28835938 14.02355469 8.13140625 14.01195312 9 14 C8.3503125 13.15695313 7.700625 12.31390625 7.03125 11.4453125 C6.18724883 10.33873319 5.34351251 9.23195185 4.5 8.125 C3.85611328 7.29162109 3.85611328 7.29162109 3.19921875 6.44140625 C0 2.2265625 0 2.2265625 0 0 Z " fill="#155FBA" transform="translate(776,130)"/>
<path d="M0 0 C0.78826172 0.02255859 1.57652344 0.04511719 2.38867188 0.06835938 C4.32243929 0.12695839 6.25522167 0.21663173 8.1875 0.3125 C7.23328192 1.46176266 6.27397955 2.60680541 5.3125 3.75 C4.77882813 4.38808594 4.24515625 5.02617188 3.6953125 5.68359375 C2.1875 7.3125 2.1875 7.3125 0.1875 8.3125 C2.0625 4.4375 2.0625 4.4375 3.1875 3.3125 C-4.24131187 2.49997749 -4.24131187 2.49997749 -11.16796875 4.6484375 C-12.8480005 6.12409426 -14.36988055 7.60573896 -15.8125 9.3125 C-12.54720714 1.29769024 -8.03497721 -0.43778166 0 0 Z " fill="#0D57B7" transform="translate(777.8125,84.6875)"/>
<path d="M0 0 C-0.3125 2.875 -0.3125 2.875 -1 6 C-1.99 6.66 -2.98 7.32 -4 8 C-3.34 6.02 -2.68 4.04 -2 2 C-9.27734661 1.27780932 -9.27734661 1.27780932 -15.6875 4 C-16.120625 4.66 -16.55375 5.32 -17 6 C-17.66 5.67 -18.32 5.34 -19 5 C-14.64010807 -3.21671941 -8.32659446 -1.2394119 0 0 Z " fill="#135AB9" transform="translate(514,129)"/>
<path d="M0 0 C3.96 0 7.92 0 12 0 C12.1953125 6.0546875 12.1953125 6.0546875 12 8 C11.34 8.66 10.68 9.32 10 10 C10 7.36 10 4.72 10 2 C6.37 2 2.74 2 -1 2 C-0.67 1.34 -0.34 0.68 0 0 Z " fill="#0B5DB9" transform="translate(293,85)"/>
<path d="M0 0 C0.33 0 0.66 0 1 0 C1 3.3 1 6.6 1 10 C4.96 10 8.92 10 13 10 C13.33 10.66 13.66 11.32 14 12 C9.38 12 4.76 12 0 12 C-1.31157516 9.37684968 -0.89649988 7.76966564 -0.5625 4.875 C-0.46066406 3.96492187 -0.35882813 3.05484375 -0.25390625 2.1171875 C-0.17011719 1.41851562 -0.08632812 0.71984375 0 0 Z " fill="#1262BB" transform="translate(252,135)"/>
<path d="M0 0 C-2.64738916 1.4606285 -3.89448334 2 -7 2 C-7.226875 2.5775 -7.45375 3.155 -7.6875 3.75 C-9.33038023 6.5663661 -11.39533227 8.08077114 -14 10 C-14.33 9.01 -14.66 8.02 -15 7 C-9.96702568 1.687416 -7.39491636 -0.33613256 0 0 Z " fill="#1962BA" transform="translate(606,85)"/>
</svg>
